<?xml version="1.0" standalone="no"?>
<!DOCTYPE svg PUBLIC "-//W3C//DTD SVG 20010904//EN"
 "http://www.w3.org/TR/2001/REC-SVG-20010904/DTD/svg10.dtd">
<svg version="1.0" xmlns="http://www.w3.org/2000/svg"
 width="354.000000pt" height="232.000000pt" viewBox="0 0 354.000000 232.000000"
 preserveAspectRatio="xMidYMid meet">

<g transform="translate(0.000000,232.000000) scale(0.100000,-0.100000)"
fill="#000000" stroke="none">
<path d="M2900 2299 c-19 -12 -47 -32 -62 -46 -31 -30 -45 -24 -54 22 -3 19
-10 35 -15 35 -13 0 -59 -77 -59 -99 0 -31 -18 -34 -42 -6 -35 40 -41 31 -33
-50 7 -74 6 -75 -19 -85 -14 -5 -33 -7 -41 -4 -24 10 -18 -9 20 -58 35 -44 35
-45 20 -81 -19 -46 -19 -45 7 -49 30 -4 53 -50 38 -78 -9 -17 -8 -20 11 -20
15 0 19 -5 15 -15 -3 -9 1 -15 11 -15 8 0 26 -11 39 -25 13 -14 28 -25 33 -25
6 0 0 10 -12 23 -28 29 -57 66 -57 71 0 2 8 3 18 1 9 -1 12 0 6 2 -6 2 -16 14
-22 27 -8 18 -6 25 7 34 14 11 13 12 -6 7 -13 -4 -23 -2 -23 3 0 5 11 12 25
14 13 3 23 2 21 -1 -2 -3 0 -17 5 -30 8 -19 12 -21 24 -11 8 7 15 20 15 29 0
13 8 16 39 13 32 -3 42 1 60 23 11 15 21 36 21 46 0 23 10 24 35 5 11 -8 24
-12 30 -9 21 7 38 -23 25 -46 -6 -12 -15 -21 -20 -21 -6 0 -10 -12 -10 -27 -1
-75 -67 -152 -132 -154 -24 0 -28 -2 -15 -8 17 -6 17 -8 -2 -25 -16 -14 -21
-31 -21 -67 0 -36 -6 -55 -25 -77 -14 -17 -25 -41 -25 -54 0 -14 -10 -40 -23
-59 l-23 -34 -184 -12 c-102 -7 -232 -15 -290 -18 -58 -3 -118 -9 -135 -14
l-30 -9 25 -10 c16 -6 29 -6 37 0 7 6 85 8 197 6 158 -4 188 -7 212 -23 16
-10 42 -22 59 -26 29 -8 29 -8 -5 -5 -19 3 -54 10 -77 17 -36 11 -47 11 -75
-3 -25 -13 -28 -17 -13 -18 41 -1 -9 -20 -54 -20 l-45 0 22 20 c12 12 22 23
22 25 0 3 -21 5 -47 5 -25 0 -44 -3 -40 -6 24 -24 -136 -66 -176 -46 -12 7
-29 11 -37 10 -8 -1 -51 0 -95 1 l-80 2 40 19 c22 11 31 17 20 14 -100 -32
-99 -32 -165 -18 -36 7 -110 14 -165 14 -85 0 -108 4 -154 25 -42 20 -79 27
-175 34 -66 5 -134 14 -149 20 -16 6 -53 11 -83 11 -30 0 -54 2 -54 5 0 2 9
29 21 59 15 42 18 60 9 75 -12 23 -5 120 10 135 7 7 10 6 10 -2 0 -19 35 -14
64 9 41 32 33 112 -13 131 -31 13 -73 10 -83 -5 -4 -6 -10 1 -13 16 -10 37
-65 78 -115 84 -24 4 -45 13 -50 23 -16 31 -66 42 -109 24 -40 -16 -61 -47
-61 -89 0 -16 -16 -41 -44 -68 -44 -44 -85 -140 -73 -171 5 -13 -2 -42 -24
-102 -7 -19 -14 -21 -56 -18 -99 7 -189 23 -233 39 -45 17 -134 21 -196 9
l-34 -6 0 -444 0 -443 48 -3 47 -4 -47 -13 -48 -13 0 -299 0 -299 964 0 c845
0 965 2 976 15 11 13 5 15 -41 17 -49 1 -50 2 -14 6 32 3 36 6 20 12 -15 7 -9
9 25 11 29 1 14 5 -45 10 -170 14 -154 27 34 28 96 1 177 4 180 6 2 3 -51 5
-119 5 -68 0 -121 2 -119 4 2 3 83 8 179 11 96 4 177 11 180 15 3 4 93 10 200
13 168 4 177 4 70 -4 -188 -13 -190 -16 -15 -18 88 0 175 3 193 9 21 6 98 5
210 -1 97 -5 286 -12 420 -16 l242 -6 0 66 0 67 -42 -1 c-33 0 -38 -2 -23 -9
15 -6 8 -9 -27 -9 -34 -1 -48 3 -48 13 0 15 42 26 101 26 l39 0 0 85 0 85
-105 0 c-58 0 -105 4 -105 9 0 5 -3 16 -6 25 -5 14 8 16 105 16 77 0 111 4
111 11 0 9 -31 10 -114 5 l-114 -7 -16 47 c-8 26 -13 50 -10 55 3 5 -1 9 -8
10 -7 0 -4 4 7 9 18 8 18 9 -5 10 -49 4 41 19 153 26 94 6 107 9 107 25 0 17
-12 18 -142 18 -77 1 -143 3 -146 6 -3 3 58 5 136 5 77 0 143 3 145 8 3 4 -60
6 -139 4 -124 -3 -144 -1 -144 12 0 11 14 16 53 19 l52 3 -58 2 c-32 1 -57 5
-55 10 2 4 17 35 33 68 29 59 32 62 74 68 24 3 59 6 77 6 19 0 33 3 33 8 -3
19 2 25 11 12 7 -11 12 -12 18 -4 4 7 18 14 32 17 14 2 -13 5 -60 6 l-86 1
-12 33 c-7 18 -12 36 -12 40 0 4 43 7 95 7 l95 0 0 31 c0 24 -3 30 -16 25 -9
-3 -30 -6 -47 -7 -31 -1 -31 -1 -7 -9 24 -8 24 -8 3 -10 -25 -3 -75 -3 -97 -1
-15 1 -14 9 6 87 9 38 14 42 46 48 21 3 54 6 75 6 37 0 37 0 37 41 l0 42 -57
-5 -58 -6 0 65 c0 91 -13 100 -165 109 -65 4 -118 12 -122 18 -4 6 -8 36 -8
67 0 58 23 99 56 99 8 0 19 11 26 24 11 27 4 61 -11 51 -5 -3 -13 0 -17 6 -4
8 -3 9 4 5 27 -16 9 14 -24 44 -51 45 -79 53 -114 35 -33 -17 -105 -21 -95 -5
3 6 18 7 32 4 23 -6 24 -5 14 14 -15 29 -15 29 24 42 40 13 41 16 18 43 -17
19 -17 20 1 31 10 6 28 18 39 27 20 16 20 17 -29 38 l-49 23 43 37 c23 20 42
40 42 44 0 4 -17 7 -37 8 -21 1 -48 4 -60 7 l-22 7 29 59 c16 33 28 62 25 64
-2 2 -24 -4 -50 -13 -25 -10 -48 -16 -51 -13 -3 3 4 29 15 57 22 58 15 62 -39
30z m24 -21 c-5 -7 -9 -20 -11 -28 -1 -8 -4 -27 -7 -42 -7 -33 2 -35 54 -8 22
11 40 16 40 11 0 -5 -15 -32 -34 -59 -37 -56 -37 -56 38 -67 57 -9 51 -25 -10
-25 -48 0 -71 10 -122 53 -27 22 -42 27 -85 27 -29 0 -63 -6 -76 -13 -36 -18
-63 -70 -63 -122 -1 -25 -3 -43 -5 -41 -2 2 -17 21 -32 42 l-29 39 31 10 32
10 -1 73 0 72 27 -26 c29 -28 49 -25 49 6 0 24 31 90 42 90 4 0 8 -8 8 -18 0
-10 10 -29 21 -41 l22 -23 21 26 c22 27 88 77 95 71 1 -2 -1 -10 -5 -17z m-77
-168 c31 -18 53 -50 67 -97 7 -21 5 -22 -23 -12 -22 8 -42 7 -80 -5 -28 -8
-51 -12 -51 -9 0 3 -6 1 -12 -5 -7 -5 -28 -13 -47 -17 -32 -7 -33 -8 -16 -21
20 -15 39 -9 29 9 -4 7 1 5 11 -4 23 -22 5 -59 -29 -59 -26 0 -44 29 -25 40 7
5 8 10 1 14 -6 3 -10 15 -9 26 1 15 9 20 33 20 35 0 156 58 148 71 -9 14 -46
10 -65 -7 -10 -9 -35 -22 -56 -30 -21 -9 -27 -13 -13 -11 14 3 34 8 45 12 16
6 18 5 8 -5 -6 -7 -32 -15 -57 -17 -44 -5 -46 -5 -46 21 0 37 27 85 53 96 38
15 100 11 134 -10z m-27 -57 c-8 -3 -24 -10 -35 -16 -18 -9 -19 -9 -6 6 7 10
23 17 35 16 14 0 16 -2 6 -6z m215 -78 l50 -13 -48 -1 c-36 -1 -53 4 -70 20
-20 20 -21 21 -2 14 11 -4 43 -13 70 -20z m-179 1 c1 0 4 -13 8 -27 8 -35 -34
-67 -68 -51 -19 10 -18 11 10 11 18 1 37 9 45 19 11 14 11 15 -1 5 -21 -19
-79 -16 -87 4 -4 9 -1 19 5 21 7 2 10 8 7 13 -4 5 9 6 27 3 26 -5 30 -3 18 6
-12 9 -10 10 10 4 14 -3 25 -7 26 -8z m-97 -83 c0 -10 -4 -27 -9 -38 -7 -16
-9 -13 -9 18 -1 20 4 37 9 37 6 0 10 -8 9 -17z m-99 -3 c0 -5 -2 -10 -4 -10
-3 0 -8 5 -11 10 -3 6 -1 10 4 10 6 0 11 -4 11 -10z m375 -10 c3 -5 2 -10 -4
-10 -5 0 -13 5 -16 10 -3 6 -2 10 4 10 5 0 13 -4 16 -10z m-349 -87 c-10 -10
-19 5 -10 18 6 11 8 11 12 0 2 -7 1 -15 -2 -18z m456 -29 c42 -29 53 -46 13
-20 -36 24 -39 20 -16 -20 13 -21 19 -44 16 -55 -9 -27 -22 -24 -29 7 -10 40
-50 74 -87 74 l-31 0 23 20 c33 27 66 25 111 -6z m-128 -66 c19 -8 25 -17 22
-34 -3 -15 0 -23 7 -21 15 3 13 -73 -3 -103 -9 -16 -15 -18 -30 -10 -23 12
-25 3 -8 -35 10 -23 8 -29 -19 -58 -41 -43 -53 -69 -53 -114 0 -21 -9 -51 -19
-67 -15 -22 -18 -40 -14 -80 4 -40 2 -55 -11 -65 -10 -9 -16 -29 -16 -58 0
-24 -5 -53 -10 -64 -10 -17 -13 -18 -26 -4 -9 8 -26 15 -39 15 -19 0 -26 -8
-34 -37 -16 -55 -13 -62 9 -28 24 37 24 34 1 -34 -19 -55 -51 -89 -51 -55 0
15 -4 14 -22 -6 -22 -23 -23 -23 -26 -5 -7 49 -13 63 -28 69 -12 4 -15 2 -10
-9 18 -44 17 -48 -3 -23 l-22 27 20 40 c11 21 33 49 48 61 16 12 20 19 11 16
-27 -8 -23 29 7 68 21 27 91 225 109 309 4 18 23 39 53 60 25 18 55 40 67 50
21 17 21 17 -6 7 -33 -11 -34 -7 -8 31 13 18 33 31 55 35 43 8 46 24 5 24 -31
0 -80 -37 -80 -61 0 -7 -12 -28 -27 -47 l-27 -36 -8 30 c-4 16 -5 38 -2 49 5
19 4 19 -7 2 -6 -11 -9 -30 -6 -43 4 -22 -23 -106 -46 -141 -15 -23 -37 -14
-38 15 0 24 -1 25 -9 7 -13 -30 -12 -73 3 -78 6 -2 20 0 30 5 9 5 17 7 17 4 0
-32 -53 -70 -113 -80 -21 -4 -41 -14 -44 -22 -3 -8 4 -40 16 -71 16 -42 18
-53 6 -43 -8 7 -22 36 -31 64 l-17 53 41 69 c47 81 91 136 102 129 4 -2 10 18
12 46 3 31 13 58 25 72 12 12 33 48 48 80 14 31 31 57 37 57 7 0 7 -4 0 -12
-11 -15 -22 -79 -11 -72 4 2 10 18 14 34 7 32 47 70 74 70 10 0 26 7 37 15 23
18 18 17 48 3z m181 -46 c-15 -16 -16 -15 -4 12 7 15 15 23 17 16 3 -7 -3 -19
-13 -28z m-2367 -24 c6 -6 31 -15 54 -19 40 -8 39 -8 -12 -4 -30 2 -62 6 -70
9 -18 8 -55 -47 -46 -69 3 -8 -2 -18 -10 -23 -14 -8 -14 -10 0 -21 9 -8 16
-10 16 -6 0 5 9 0 20 -10 21 -19 70 -25 106 -12 16 6 23 2 32 -19 11 -24 11
-25 -9 -19 -15 5 -19 4 -15 -4 5 -7 -3 -11 -23 -11 -16 0 -33 -5 -36 -10 -4
-7 5 -10 27 -8 18 2 34 0 36 -4 5 -17 1 -29 -7 -23 -5 3 -22 -6 -37 -20 -30
-28 -58 -31 -94 -10 -14 8 -47 26 -75 40 -27 14 -61 32 -75 40 -22 13 -23 15
-5 15 15 1 12 4 -11 14 -56 25 -53 59 7 70 22 4 63 28 105 61 68 55 99 66 122
43z m1969 -35 c-3 -10 -5 -2 -5 17 0 19 2 27 5 18 2 -10 2 -26 0 -35z m-1926
-10 c12 -14 19 -48 11 -60 -6 -9 -17 -9 -47 2 -22 8 -48 14 -57 15 -23 0 -23
18 -1 43 14 14 26 17 52 13 19 -3 38 -9 42 -13z m-48 -64 c41 -11 48 -24 16
-34 -14 -5 -31 0 -50 14 -17 13 -29 17 -29 10 0 -7 -3 -10 -6 -6 -8 8 5 27 19
27 7 0 29 -5 50 -11z m189 -14 c10 -22 9 -29 -10 -47 -20 -20 -22 -21 -47 -4
-34 22 -26 32 14 18 43 -15 39 -4 -5 14 -29 12 -34 17 -24 29 20 24 59 18 72
-10z m-384 -97 c7 -7 12 -16 12 -21 0 -11 -57 1 -90 19 -24 13 -23 13 21 14
25 0 50 -5 57 -12z m-462 -53 c-29 -31 -36 -14 -10 24 10 14 20 19 26 13 6 -6
0 -20 -16 -37z m454 16 c37 11 59 10 35 -2 -16 -8 -14 -8 11 -5 23 4 37 0 49
-14 18 -20 17 -20 -23 -20 -22 0 -44 -5 -48 -11 -4 -8 -12 -2 -22 16 -8 16
-17 23 -21 17 -4 -6 -16 -1 -34 13 -35 31 -35 42 1 17 19 -13 34 -16 52 -11z
m2773 6 c3 -7 3 -25 0 -40 -4 -22 -11 -27 -34 -27 -27 0 -29 2 -23 28 10 41
46 66 57 39z m-2433 -27 c-13 -23 -45 -45 -80 -54 -19 -5 -16 -2 10 13 19 10
44 28 54 40 24 26 30 27 16 1z m-395 -20 c3 -5 1 -10 -4 -10 -6 0 -11 5 -11
10 0 6 2 10 4 10 3 0 8 -4 11 -10z m223 -30 c34 -21 43 -34 16 -23 -9 3 1 -18
25 -52 22 -32 38 -62 35 -66 -5 -9 -61 17 -94 45 -23 20 -23 20 -10 1 8 -11
23 -28 35 -37 20 -17 20 -18 0 -19 -11 -1 0 -5 24 -8 29 -4 48 -13 55 -26 6
-11 18 -25 26 -32 13 -11 11 -13 -10 -14 -22 -1 -22 -2 8 -10 30 -9 45 -29 21
-29 -6 0 -9 -7 -6 -14 4 -10 1 -13 -9 -9 -7 3 -14 9 -14 14 0 5 -9 9 -20 9
-22 0 -107 37 -115 50 -3 4 16 5 40 2 44 -5 63 9 29 22 -25 10 -41 6 -19 -5
16 -7 12 -8 -14 -4 -18 3 -41 5 -50 5 -14 0 -14 2 -1 10 12 8 11 10 -7 10 -27
0 -30 4 -63 102 -24 71 -25 80 -11 88 28 16 94 11 129 -10z m981 -45 c7 -8
-110 -4 -159 5 -33 6 -18 7 54 4 55 -2 102 -7 105 -9z m-1114 -110 c4 -21 3
-25 -3 -15 -15 24 -26 67 -14 55 6 -5 13 -23 17 -40z m1933 20 c6 -14 9 -32 5
-41 -3 -9 0 -20 8 -24 7 -5 10 -12 6 -17 -5 -4 -12 -1 -17 7 -7 12 -57 14
-299 13 -177 -1 -291 2 -291 8 0 5 17 10 38 10 l37 2 -40 7 c-22 4 -32 8 -22
9 10 0 16 5 12 10 -3 6 14 12 37 16 48 6 322 21 439 24 72 1 76 0 87 -24z
m123 -17 c9 -3 9 -9 0 -26 -6 -12 -15 -22 -20 -22 -18 0 -32 29 -25 54 5 22 8
23 20 12 7 -8 19 -16 25 -18z m629 4 c0 -29 -23 -54 -43 -46 -13 4 -16 12 -11
28 12 37 54 51 54 18z m-1372 -29 c-10 -2 -26 -2 -35 0 -10 3 -2 5 17 5 19 0
27 -2 18 -5z m305 -50 c45 -11 77 -23 77 -30 0 -7 11 -15 25 -19 21 -5 24 -10
19 -33 -9 -38 -38 -76 -62 -79 -12 -2 -44 8 -71 21 -28 13 -51 22 -51 20 0 -2
7 -17 15 -33 l15 -30 -52 21 c-40 15 -70 38 -120 92 -37 40 -67 75 -68 80 0
14 195 7 273 -10z m90 5 c-15 -7 -33 -7 -60 0 -38 10 -37 10 22 10 49 1 56 -1
38 -10z m182 -3 c55 -8 103 -15 108 -15 4 0 7 -7 7 -15 0 -18 -11 -18 -81 -4
-30 6 -90 15 -134 18 -77 7 -79 7 -45 18 19 6 37 12 40 12 3 0 50 -6 105 -14z
m-555 -7 c0 -6 10 -23 22 -37 13 -14 16 -20 8 -13 -23 20 -33 14 -18 -10 31
-50 29 -63 -5 -28 -43 44 -62 50 -53 16 13 -53 25 -73 60 -100 38 -29 48 -51
19 -42 -10 3 -25 1 -33 -4 -12 -8 -12 -14 5 -47 11 -21 21 -41 23 -44 2 -4 -5
-6 -15 -5 -15 1 -19 -9 -23 -58 -3 -38 -10 -61 -19 -64 -10 -3 -12 3 -8 24 3
16 9 56 12 89 6 53 4 63 -14 79 -12 11 -21 14 -21 8 0 -6 5 -14 10 -17 16 -10
12 -118 -5 -141 -8 -10 -15 -41 -15 -67 0 -52 -14 -56 -25 -7 -4 17 -11 28
-16 24 -9 -5 -13 13 -11 56 1 22 -1 21 -14 -10 -13 -27 -14 -42 -5 -70 9 -32
9 -34 -5 -15 l-16 20 2 -20 c4 -41 -3 -48 -10 -10 -4 22 -13 54 -20 71 -12 28
-10 34 22 82 24 35 41 76 53 129 20 88 34 125 46 117 5 -3 9 8 9 24 0 16 9 41
21 56 22 28 39 34 39 14z m435 -45 c-5 -33 -52 -207 -101 -377 -19 -65 -31
-122 -27 -127 4 -4 24 -10 44 -14 26 -5 39 -2 48 9 8 9 20 16 28 16 12 0 14
-8 10 -37 -5 -31 -3 -29 9 12 8 28 17 55 19 62 2 6 14 17 26 24 l22 11 -6
-137 c-4 -76 -7 -167 -7 -202 0 -51 -3 -63 -16 -63 -13 0 -15 8 -10 47 3 27 8
75 10 108 5 56 4 54 -9 -20 -8 -44 -17 -94 -20 -111 -4 -21 -13 -34 -25 -37
-17 -4 -20 0 -20 31 0 21 6 74 14 119 12 77 8 103 -11 68 -7 -13 -17 -12 -71
4 -34 11 -64 15 -67 10 -10 -16 -35 -104 -36 -129 -2 -22 -2 -22 -6 -4 -2 12
3 50 12 84 9 34 14 65 11 68 -3 3 -6 0 -6 -6 0 -7 -5 -12 -11 -12 -5 0 -7 4
-4 10 3 6 1 10 -5 10 -5 0 -9 14 -8 30 1 17 6 30 10 30 4 0 8 5 8 11 0 8 -46
10 -154 8 -85 -2 -152 -1 -149 4 2 4 15 7 29 7 23 0 24 2 10 15 -18 18 -13 35
17 55 17 12 44 14 127 10 67 -4 99 -9 88 -14 -10 -4 -24 -6 -32 -3 -8 3 -22
-1 -33 -8 -16 -13 -10 -14 50 -15 63 0 68 -2 79 -26 11 -24 14 -16 44 93 72
268 105 389 109 401 8 22 14 13 10 -15z m-2210 -33 c10 -46 0 -36 -14 14 -5
22 -6 35 -2 30 5 -5 12 -25 16 -44z m880 30 c0 -10 -13 -16 -42 -18 -28 -2
-43 1 -43 8 0 7 -7 9 -16 6 -9 -3 -21 -3 -27 1 -7 5 13 11 43 14 73 8 85 6 85
-11z m44 -9 c-15 -5 -22 6 -14 19 6 9 10 9 16 -1 5 -8 4 -15 -2 -18z m763 -19
c-16 -40 -19 -42 -62 -43 -25 0 -54 -4 -65 -8 -19 -8 -19 -8 2 -15 13 -4 26
-5 31 -2 4 2 14 0 22 -5 11 -8 2 -9 -30 -5 -24 2 -46 10 -48 15 -2 6 -33 12
-70 13 l-67 1 50 7 c43 6 45 7 15 8 -20 1 -40 6 -46 12 -6 6 -22 6 -44 0 -19
-6 -99 -10 -177 -10 -122 0 -142 2 -137 15 4 8 12 15 19 15 7 0 15 5 17 11 3
9 26 8 90 -1 86 -12 168 -7 168 11 0 5 15 8 33 8 l32 -1 -30 -7 c-52 -12 67
-20 170 -11 50 4 74 8 55 10 -31 2 -28 4 25 14 33 7 61 11 62 11 2 -1 -5 -20
-15 -43z m-673 9 c-15 -5 -22 6 -14 19 6 9 10 9 16 -1 5 -8 4 -15 -2 -18z
m-460 0 c6 -10 7 -21 4 -25 -10 -10 -73 -7 -73 3 0 41 51 57 69 22z m202 -3
c11 -13 32 -35 47 -50 30 -31 27 -37 -20 -48 -27 -7 -23 -8 24 -7 32 1 58 3
58 5 0 2 -12 13 -27 26 -29 25 -24 46 11 46 17 0 25 -7 28 -25 4 -20 3 -23 -8
-14 -10 8 -14 8 -14 1 0 -6 5 -14 10 -17 11 -7 3 -53 -13 -74 -8 -9 -23 -11
-52 -6 -22 4 -50 8 -62 8 -34 3 -156 117 -152 141 4 18 8 16 39 -16 19 -20 46
-39 60 -43 23 -5 22 -3 -10 26 -19 17 -26 27 -15 22 11 -6 40 -11 65 -12 l45
-2 -27 26 c-16 14 -28 28 -28 30 0 12 22 3 41 -17z m1639 12 c13 -9 13 -10 0
-10 -8 0 -22 5 -30 10 -13 9 -13 10 0 10 8 0 22 -5 30 -10z m-1413 -6 c-3 -3
-12 -4 -19 -1 -8 3 -5 6 6 6 11 1 17 -2 13 -5z m290 0 c-3 -3 -12 -4 -19 -1
-8 3 -5 6 6 6 11 1 17 -2 13 -5z m-1287 -35 c0 -20 -15 -26 -24 -10 -8 13 4
42 15 35 5 -3 9 -14 9 -25z m1913 -58 c-6 -10 -50 30 -68 60 -18 32 -17 31 25
-11 25 -25 44 -47 43 -49z m462 45 c4 -24 5 -52 3 -62 -5 -18 -5 -18 -12 1 -4
11 -16 39 -27 63 l-19 42 25 0 c21 0 25 -6 30 -44z m-1378 15 c-3 -14 -1 -18
9 -14 8 3 14 -1 14 -11 0 -9 -6 -19 -14 -22 -8 -3 -12 -13 -9 -25 4 -13 0 -19
-12 -19 -11 0 -15 5 -11 15 3 8 9 22 12 30 4 9 3 15 -2 14 -16 -4 -44 13 -44
26 0 12 12 17 54 24 4 0 6 -8 3 -18z m33 9 c0 -5 -5 -10 -11 -10 -5 0 -7 5 -4
10 3 6 8 10 11 10 2 0 4 -4 4 -10z m1298 -89 c-4 -43 -27 -59 -62 -43 -22 10
-26 17 -25 54 1 24 4 33 6 21 5 -25 19 -30 26 -10 2 6 3 0 1 -15 -2 -16 1 -28
6 -28 17 0 32 52 26 90 l-6 35 15 -35 c9 -19 15 -50 13 -69z m-1279 -21 c-7
-25 -16 -49 -20 -54 -5 -5 -4 6 1 24 6 19 7 43 4 53 -3 10 -3 30 1 45 l7 27
10 -25 c6 -17 5 -40 -3 -70z m2006 70 c3 -5 -1 -10 -10 -10 -9 0 -13 5 -10 10
3 6 8 10 10 10 2 0 7 -4 10 -10z m110 -20 c-3 -5 -18 -10 -33 -10 -21 0 -24 2
-12 10 20 13 53 13 45 0z m-1552 -27 c-7 -2 -21 -2 -30 0 -10 3 -4 5 12 5 17
0 24 -2 18 -5z m57 -24 c0 -5 -53 -8 -117 -8 -74 1 -105 4 -83 9 52 10 200 10
200 -1z m-690 -21 c0 -19 -2 -20 -10 -8 -13 19 -13 30 0 30 6 0 10 -10 10 -22z
m968 15 c-10 -2 -28 -2 -40 0 -13 2 -5 4 17 4 22 1 32 -1 23 -4z m472 -8 c11
-13 8 -15 -14 -15 -23 0 -25 2 -14 15 16 18 13 18 28 0z m-1072 -2 c-15 -2
-42 -2 -60 0 -18 2 -6 4 27 4 33 0 48 -2 33 -4z m704 -68 c9 -20 9 -20 -6 -1
-9 11 -16 27 -15 35 0 14 1 14 6 1 3 -8 10 -24 15 -35z m-943 -40 c19 -24 29
-75 21 -102 -4 -15 -9 -21 -9 -12 -1 9 -8 16 -16 16 -8 0 -16 -7 -17 -16 0 -9
-4 27 -8 79 -8 101 -2 137 13 80 5 -19 12 -39 16 -45z m1309 37 c2 -15 -4 -25
-20 -32 -20 -9 -19 -10 11 -5 l34 5 -8 -47 c-23 -146 -22 -142 -25 -103 l-3
35 -7 -40 c-5 -30 -8 -33 -9 -13 0 15 -6 30 -13 34 -8 5 -9 -3 -5 -29 3 -21 2
-37 -2 -37 -5 0 -11 18 -15 40 -7 47 -22 45 -32 -4 -7 -38 2 -76 17 -76 6 0 7
5 4 10 -4 6 6 10 23 10 16 0 35 7 42 15 7 8 23 15 36 15 12 0 26 5 29 10 3 6
-3 10 -14 10 -12 0 -21 5 -21 10 0 6 18 10 40 10 22 0 40 -2 40 -5 0 -3 -7
-32 -17 -65 -14 -53 -19 -60 -42 -61 l-26 -1 25 -7 25 -7 -25 -7 c-14 -4 -46
-7 -72 -7 -70 0 -59 -15 12 -17 38 -2 59 1 55 7 -3 6 -1 10 5 10 7 0 10 -6 8
-12 -3 -7 -30 -17 -61 -22 -64 -10 -87 0 -87 40 0 20 5 24 33 25 l32 2 -35 7
c-33 7 -32 8 20 10 l55 3 -45 4 c-61 6 -70 16 -70 82 l0 56 -52 0 c-40 0 -53
4 -53 15 0 12 12 14 57 12 l58 -2 23 47 c13 27 22 54 20 61 -9 23 6 44 29 40
15 -2 24 -11 26 -26z m-1499 -7 c27 -13 49 -55 30 -55 -5 0 -9 4 -9 8 0 4 -13
16 -30 25 -16 10 -30 22 -30 28 0 12 6 12 39 -6z m1074 -32 c-7 -2 -21 -2 -30
0 -10 3 -4 5 12 5 17 0 24 -2 18 -5z m234 1 c-3 -3 -12 -4 -19 -1 -8 3 -5 6 6
6 11 1 17 -2 13 -5z m-2045 -31 c-18 -2 -30 -8 -28 -12 3 -4 -9 -5 -27 -2 -31
4 -31 5 -7 12 14 4 41 7 60 6 l35 0 -33 -4z m2758 -2 c39 -7 34 -9 -40 -9 -47
0 -110 3 -140 8 -50 6 -46 7 40 8 52 0 115 -3 140 -7z m-2351 -78 c-16 -42
-41 -112 -55 -155 -14 -44 -28 -77 -31 -75 -5 6 56 189 87 262 31 73 31 51 -1
-32z m2241 58 c41 -4 93 -6 116 -3 33 3 43 0 48 -14 4 -10 3 -20 -3 -22 -6 -2
-2 -13 9 -24 23 -25 65 -126 56 -136 -4 -4 -49 -10 -99 -13 l-92 -6 103 1 c56
0 102 -2 102 -6 0 -7 -103 -16 -354 -31 -16 -1 -31 4 -33 11 -3 7 5 12 21 12
14 0 26 5 26 11 0 7 -11 9 -26 6 -20 -3 -27 1 -35 20 -5 13 -9 26 -9 29 0 2
33 4 73 4 39 0 79 5 87 10 8 5 11 10 5 11 -22 3 -141 -2 -156 -7 -12 -3 -20 5
-27 26 l-11 30 47 2 47 1 -49 6 c-102 12 -52 39 79 42 33 1 49 4 35 6 -14 3
-28 10 -32 17 -4 6 -33 11 -66 11 -40 0 -58 4 -55 11 4 12 52 11 193 -5z
m-280 0 c0 -13 -27 -21 -68 -20 l-37 1 45 13 c57 17 60 17 60 6z m-2550 -11
c-12 -8 -10 -10 9 -10 37 0 22 -6 -31 -13 -31 -4 -48 -3 -48 4 0 6 5 7 10 4 6
-3 10 -2 10 4 0 5 -6 12 -12 14 -7 3 7 6 32 6 33 1 41 -2 30 -9z m2320 2 c0
-4 -21 -6 -47 -4 -76 5 -83 10 -15 11 34 0 62 -2 62 -7z m835 -6 c66 2 27 -13
-46 -17 -46 -3 -54 0 -57 15 -3 16 0 17 25 10 15 -5 50 -8 78 -8z m-442 -3
c-7 -2 -21 -2 -30 0 -10 3 -4 5 12 5 17 0 24 -2 18 -5z m550 0 c-7 -2 -21 -2
-30 0 -10 3 -4 5 12 5 17 0 24 -2 18 -5z m-1313 -13 c11 -7 -7 -10 -60 -11
-72 -2 -73 -2 -25 -9 l50 -7 -57 -1 c-45 -2 -58 1 -58 13 0 10 16 15 63 18 34
2 64 4 67 5 3 1 12 -3 20 -8z m-1830 -4 c0 -2 -9 -6 -20 -9 -11 -3 -18 -1 -14
4 5 9 34 13 34 5z m568 -76 l0 -35 -7 37 c-4 20 -13 43 -19 51 -7 8 -9 17 -5
21 12 11 32 -37 31 -74z m840 73 c-10 -2 -26 -2 -35 0 -10 3 -2 5 17 5 19 0
27 -2 18 -5z m997 -3 c-19 -8 -19 -9 0 -9 13 -1 16 -4 8 -12 -13 -13 -60 -2
-67 17 -4 11 4 14 37 13 33 0 38 -2 22 -9z m122 4 c-3 -3 -12 -4 -19 -1 -8 3
-5 6 6 6 11 1 17 -2 13 -5z m-2624 -11 c-7 -2 -21 -2 -30 0 -10 3 -4 5 12 5
17 0 24 -2 18 -5z m246 3 c-2 -2 -35 -6 -74 -9 -45 -3 -58 -3 -35 2 37 9 116
14 109 7z m564 -45 c-15 -28 -29 -48 -31 -47 -7 8 11 56 29 75 32 34 32 25 2
-28z m176 9 c0 -10 -3 -8 -9 5 -12 27 -12 43 0 25 5 -8 9 -22 9 -30z m144 20
c3 -11 1 -20 -4 -20 -5 0 -9 9 -9 20 0 11 2 20 4 20 2 0 6 -9 9 -20z m217 10
c-39 -5 -46 -8 -25 -10 28 -3 27 -3 -10 -10 l-40 -7 40 -3 40 -3 -40 -6 -40
-7 50 -9 c28 -5 91 -9 142 -10 105 0 103 -10 -7 -21 l-75 -8 85 -11 85 -11
-48 -8 c-32 -6 -57 -5 -73 3 -14 6 -66 10 -117 10 -67 -1 -82 -4 -57 -9 32 -7
30 -7 -19 -9 -50 -1 -53 0 -35 14 11 8 41 15 70 15 38 0 54 4 58 16 6 15 -15
15 -76 -2 -9 -3 -19 0 -23 5 -3 7 0 8 9 5 12 -4 16 0 16 15 0 27 -23 37 -47
21 -17 -11 -17 -11 1 -5 20 6 20 6 0 -16 -16 -18 -20 -19 -22 -5 -2 9 -13 16
-27 16 -18 0 -22 4 -18 20 5 20 38 26 118 21 23 -1 27 0 15 8 -11 8 4 10 55 9
l70 -1 -55 -7z m207 4 c-3 -3 -12 -4 -19 -1 -8 3 -5 6 6 6 11 1 17 -2 13 -5z
m870 -16 c-3 -8 -6 -5 -6 6 -1 11 2 17 5 13 3 -3 4 -12 1 -19z m-1887 -8 c0
-13 -11 -13 -30 0 -12 8 -11 10 8 10 12 0 22 -4 22 -10z m988 3 c-27 -2 -69
-2 -95 0 -27 2 -5 3 47 3 52 0 74 -1 48 -3z m-1041 -19 c-3 -3 -12 -4 -19 -1
-8 3 -5 6 6 6 11 1 17 -2 13 -5z m150 0 c-3 -3 -12 -4 -19 -1 -8 3 -5 6 6 6
11 1 17 -2 13 -5z m1945 -57 c9 -28 15 -53 13 -56 -3 -2 -19 -4 -37 -5 -18 -1
-36 -5 -40 -11 -15 -21 -19 5 -5 37 8 18 20 48 27 66 15 39 20 36 42 -31z
m-1608 38 c4 -11 -2 -15 -22 -15 -22 0 -24 -2 -12 -11 12 -9 12 -10 -3 -5 -10
3 -28 6 -40 7 -20 1 -20 2 3 9 23 7 22 8 -10 10 -29 1 -32 3 -15 10 34 15 92
12 99 -5z m1256 10 c0 -3 -10 -10 -22 -15 -18 -7 -19 -9 -5 -9 27 -1 20 -21
-8 -21 -26 0 -29 7 -19 34 6 14 54 24 54 11z m-1195 -155 c3 -19 -6 1 -19 45
-14 44 -25 87 -25 95 1 20 37 -96 44 -140z m1292 118 c-3 -8 -6 -5 -6 6 -1 11
2 17 5 13 3 -3 4 -12 1 -19z m-1817 -19 c0 -5 -4 -9 -8 -9 -5 0 -9 7 -9 15 0
8 4 12 9 9 4 -3 8 -9 8 -15z m131 3 c-7 -2 -18 1 -23 6 -8 8 -4 9 13 5 13 -4
18 -8 10 -11z m579 14 c0 -2 -8 -10 -17 -17 -16 -13 -17 -12 -4 4 13 16 21 21
21 13z m-982 -12 c-3 -3 -18 -7 -34 -10 -16 -3 -38 -7 -49 -10 -15 -4 -17 -3
-6 4 11 8 10 11 -5 14 -10 2 7 5 40 6 32 1 56 -1 54 -4z m368 -3 c16 -5 42
-12 57 -15 47 -11 19 -26 -46 -25 -46 1 -56 3 -37 9 24 8 24 8 3 9 -16 1 -21
6 -17 16 7 18 4 17 40 6z m154 -42 c-12 -22 -18 -45 -14 -51 4 -7 3 -8 -4 -4
-12 7 -58 -71 -48 -82 3 -3 6 -1 6 4 0 6 7 19 15 30 14 16 14 15 0 -14 -9 -19
-20 -30 -27 -26 -8 5 -9 1 -5 -10 5 -11 3 -15 -5 -10 -7 5 -9 2 -5 -9 7 -19
-22 -99 -34 -91 -5 3 -6 -3 -2 -12 3 -10 2 -15 -3 -12 -5 4 -10 -12 -12 -35
-3 -49 -7 -54 -27 -37 -19 16 -19 60 0 107 19 45 20 42 -11 54 -31 11 -28 21
3 13 11 -3 25 -15 30 -27 9 -19 10 -19 16 -3 4 10 3 15 -3 11 -18 -11 -10 9
29 72 21 35 41 60 44 57 3 -4 9 7 13 22 4 16 17 43 30 60 13 17 20 35 16 39
-4 5 -1 5 5 1 10 -5 8 -17 -7 -47z m388 39 c-3 -8 -25 -14 -54 -16 -47 -2 -48
-2 -24 13 31 18 83 20 78 3z m375 5 c-7 -2 -19 -2 -25 0 -7 3 -2 5 12 5 14 0
19 -2 13 -5z m1123 -130 c-5 -5 -46 116 -45 131 0 6 11 -20 25 -58 13 -38 22
-71 20 -73z m414 102 c0 -5 -5 -3 -10 5 -5 8 -10 20 -10 25 0 6 5 3 10 -5 5
-8 10 -19 10 -25z m-2697 18 c-7 -2 -19 -2 -25 0 -7 3 -2 5 12 5 14 0 19 -2
13 -5z m74 -9 c-3 -3 -12 -4 -19 -1 -8 3 -5 6 6 6 11 1 17 -2 13 -5z m503 -34
c20 -6 15 -8 -25 -9 -67 -2 -38 -20 38 -24 35 -1 54 -6 54 -15 0 -8 -7 -10
-21 -5 -23 7 -140 5 -168 -3 -24 -7 -23 11 1 35 11 11 17 22 14 25 -9 9 78 5
107 -4z m1005 0 c-3 -5 -14 -10 -23 -10 -15 0 -15 -2 -2 -10 11 -7 -2 -10 -45
-11 -50 0 -123 -16 -90 -18 27 -3 -25 -21 -60 -21 -35 -1 -38 -2 -20 -12 11
-7 38 -15 60 -18 l40 -6 -57 -13 c-32 -7 -70 -11 -85 -9 -25 3 -22 5 17 15 41
10 42 11 13 12 -34 1 -57 21 -26 22 16 0 16 1 -2 9 -14 6 -3 9 40 10 44 2 53
4 35 9 -14 5 -40 6 -57 3 -35 -5 -43 7 -18 28 26 21 293 41 280 20z m-1608 -7
c20 -8 -119 -31 -196 -32 -34 -1 -42 2 -33 11 6 6 53 14 104 18 51 4 96 8 100
8 3 1 15 -1 25 -5z m1173 -3 c0 -5 12 -10 26 -10 16 0 23 -4 18 -11 -7 -12
-18 -11 -255 6 -45 3 -66 2 -54 -3 13 -6 -7 -11 -69 -15 -48 -4 -92 -4 -98 0
-21 12 37 25 137 30 55 2 101 6 104 9 9 9 191 4 191 -6z m75 -59 c-3 -2 -5 1
-5 9 0 10 -3 10 -15 0 -18 -15 -19 -9 -3 26 l12 26 8 -28 c4 -15 5 -30 3 -33z
m-890 39 c-3 -5 -30 -9 -58 -8 l-52 1 55 7 c30 4 56 7 58 8 2 1 0 -2 -3 -8z
m1915 6 c0 -2 3 -11 6 -19 4 -11 -2 -17 -18 -20 -21 -4 -20 -4 5 -6 30 -1 37
-25 11 -35 -26 -10 -149 -7 -138 3 5 5 20 11 34 14 l25 4 -26 2 c-22 1 -26 5
-21 26 4 24 7 25 61 19 41 -4 52 -3 41 5 -13 9 -13 11 3 11 9 0 17 -2 17 -4z
m433 -23 c-13 -2 -33 -2 -45 0 -13 2 -3 4 22 4 25 0 35 -2 23 -4z m-1818 -13
c20 -5 0 -8 -60 -7 -71 0 -81 1 -45 7 59 9 69 9 105 0z m308 3 c-7 -2 -21 -2
-30 0 -10 3 -4 5 12 5 17 0 24 -2 18 -5z m382 -3 c17 -7 15 -9 -12 -9 -17 -1
-35 4 -38 9 -7 12 22 12 50 0z m-80 -20 c-16 -4 -43 -8 -60 -9 -23 0 -26 2
-15 9 8 5 35 9 60 9 41 -1 42 -2 15 -9z m935 0 c-20 -13 -90 -13 -90 0 0 6 24
10 53 10 37 0 48 -3 37 -10z m-1287 -7 c-7 -2 -19 -2 -25 0 -7 3 -2 5 12 5 14
0 19 -2 13 -5z m1592 -3 c-3 -5 -32 -10 -63 -9 -44 1 -51 3 -32 9 37 12 102
12 95 0z m148 3 c-18 -2 -48 -2 -65 0 -18 2 -4 4 32 4 36 0 50 -2 33 -4z
m-788 -12 c-10 -10 -39 -15 -65 -11 -11 1 -9 4 5 10 27 12 72 12 60 1z m-2514
-28 c-12 -20 -14 -14 -5 12 4 9 9 14 11 11 3 -2 0 -13 -6 -23z m535 -41 c-29
-82 -79 -133 -138 -141 -53 -8 -277 11 -335 29 -24 7 -51 22 -60 33 -17 18
-17 18 17 -1 38 -23 232 -52 341 -52 84 0 115 24 159 124 19 42 35 75 36 73 2
-1 -7 -31 -20 -65z m2239 -33 c14 -40 21 -69 16 -64 -8 9 -51 128 -51 142 0
17 12 -10 35 -78z m-2788 -6 c-3 -10 -5 -2 -5 17 0 19 2 27 5 18 2 -10 2 -26
0 -35z m1128 6 c-16 -24 -63 -31 -177 -24 -65 4 -116 11 -113 15 2 4 65 5 138
2 94 -3 136 -1 141 7 4 6 9 11 12 11 3 0 2 -5 -1 -11z m372 -35 c-3 -3 -12 -4
-19 -1 -8 3 -5 6 6 6 11 1 17 -2 13 -5z m213 -3 c0 -14 -31 -18 -110 -12 -71
5 -73 6 -30 12 71 10 140 10 140 0z m1510 -11 c0 -5 -24 -10 -52 -9 -39 0 -48
3 -33 9 28 12 85 12 85 0z m-2403 -136 c-3 -3 -12 -4 -19 -1 -8 3 -5 6 6 6 11
1 17 -2 13 -5z m761 -1 c-10 -2 -26 -2 -35 0 -10 3 -2 5 17 5 19 0 27 -2 18
-5z m-1607 -34 c9 -37 -3 -51 -42 -47 -27 2 -35 8 -37 26 -8 54 65 73 79 21z
m1399 20 c60 -1 68 -3 40 -9 -27 -6 -18 -8 42 -9 97 -1 112 -21 28 -35 -77
-13 -140 -17 -140 -8 0 6 10 13 23 16 12 2 -86 3 -218 1 -210 -3 -235 -2 -200
10 29 9 34 13 18 14 -13 1 -23 5 -23 10 0 5 -10 12 -22 14 -20 4 194 2 452 -4z
m-1165 -9 c-27 -12 0 -13 40 -2 17 5 55 5 85 2 l55 -7 -47 -2 c-48 -1 -68 -19
-25 -23 46 -4 -211 -13 -265 -9 -43 2 -58 7 -58 18 0 9 6 13 14 10 8 -3 17 -3
21 1 3 3 22 5 41 3 19 -1 34 2 34 8 0 7 24 11 63 10 44 0 56 -3 42 -9z m592 3
c-39 -2 -65 -8 -62 -13 8 -13 -28 -13 -41 0 -5 5 -52 11 -104 13 -52 1 -12 3
90 3 102 0 154 -1 117 -3z m-182 -34 c7 -7 2 -10 -15 -8 -14 1 -56 -1 -95 -4
-38 -4 -86 -3 -105 1 l-35 9 50 7 c28 4 55 9 60 11 21 6 130 -7 140 -16z m253
-26 c-10 -2 -28 -2 -40 0 -13 2 -5 4 17 4 22 1 32 -1 23 -4z m255 0 c-18 -2
-48 -2 -65 0 -18 2 -4 4 32 4 36 0 50 -2 33 -4z"/>
<path d="M2720 2080 c8 -5 20 -10 25 -10 6 0 3 5 -5 10 -8 5 -19 10 -25 10 -5
0 -3 -5 5 -10z"/>
<path d="M2698 2043 c6 -2 18 -2 25 0 6 3 1 5 -13 5 -14 0 -19 -2 -12 -5z"/>
<path d="M2930 1440 c0 -5 -20 -28 -45 -52 -25 -24 -45 -48 -45 -55 0 -16 40
-53 56 -53 9 0 10 8 4 31 -8 25 -5 37 10 59 26 37 42 80 30 80 -6 0 -10 -4
-10 -10z"/>
<path d="M2810 1261 c15 -30 12 -40 -15 -53 -37 -17 -30 -27 10 -14 42 13 51
31 30 62 -19 29 -41 33 -25 5z"/>
<path d="M2837 1112 c-18 -20 -24 -77 -7 -67 9 6 32 76 26 82 -1 2 -10 -5 -19
-15z"/>
<path d="M767 1270 c3 -11 7 -20 9 -20 2 0 4 9 4 20 0 11 -4 20 -9 20 -5 0 -7
-9 -4 -20z"/>
<path d="M680 1276 c0 -2 8 -10 18 -17 15 -13 16 -12 3 4 -13 16 -21 21 -21
13z"/>
<path d="M2190 1010 c0 -8 5 -22 10 -30 9 -13 10 -13 10 0 0 8 -5 22 -10 30
-9 13 -10 13 -10 0z"/>
<path d="M2483 475 c0 -27 2 -38 4 -22 2 15 2 37 0 50 -2 12 -4 0 -4 -28z"/>
<path d="M1553 983 c9 -2 25 -2 35 0 9 3 1 5 -18 5 -19 0 -27 -2 -17 -5z"/>
<path d="M2945 469 c-4 -5 14 -9 41 -9 55 0 55 5 2 13 -21 3 -40 1 -43 -4z"/>
<path d="M886 363 c-6 -14 -5 -15 5 -6 7 7 10 15 7 18 -3 3 -9 -2 -12 -12z"/>
<path d="M2728 423 c6 -2 18 -2 25 0 6 3 1 5 -13 5 -14 0 -19 -2 -12 -5z"/>
<path d="M40 38 c0 -5 11 -8 25 -8 14 0 25 3 25 8 0 4 -11 7 -25 7 -14 0 -25
-3 -25 -7z"/>
<path d="M1182 68 c2 -6 11 -13 19 -16 12 -3 12 -2 0 7 -11 7 -5 11 25 14 l39
4 -43 1 c-30 1 -42 -2 -40 -10z"/>
<path d="M258 73 c6 -2 18 -2 25 0 6 3 1 5 -13 5 -14 0 -19 -2 -12 -5z"/>
<path d="M193 2283 c9 -2 23 -2 30 0 6 3 -1 5 -18 5 -16 0 -22 -2 -12 -5z"/>
<path d="M2868 1828 c21 -21 13 -27 -25 -21 -49 7 -40 -2 10 -11 30 -6 39 -4
44 10 3 9 0 20 -8 25 -21 13 -35 11 -21 -3z"/>
<path d="M2768 1803 c7 -3 16 -2 19 1 4 3 -2 6 -13 5 -11 0 -14 -3 -6 -6z"/>
<path d="M1980 1305 c-14 -8 -20 -14 -15 -14 6 0 21 6 35 14 14 8 21 14 15 14
-5 0 -21 -6 -35 -14z"/>
<path d="M3490 1116 c0 -2 11 -6 25 -8 14 -3 25 -1 25 3 0 5 -11 9 -25 9 -14
0 -25 -2 -25 -4z"/>
<path d="M3518 1013 c7 -3 16 -2 19 1 4 3 -2 6 -13 5 -11 0 -14 -3 -6 -6z"/>
<path d="M3493 973 c9 -2 25 -2 35 0 9 3 1 5 -18 5 -19 0 -27 -2 -17 -5z"/>
<path d="M3508 923 c6 -2 18 -2 25 0 6 3 1 5 -13 5 -14 0 -19 -2 -12 -5z"/>
<path d="M3508 763 c6 -2 18 -2 25 0 6 3 1 5 -13 5 -14 0 -19 -2 -12 -5z"/>
<path d="M3415 740 c-7 -12 34 -12 90 -1 38 8 37 9 -22 10 -34 0 -65 -3 -68
-9z"/>
<path d="M3403 633 c26 -2 68 -2 95 0 26 2 4 3 -48 3 -52 0 -74 -1 -47 -3z"/>
<path d="M3418 613 c23 -2 61 -2 85 0 23 2 4 4 -43 4 -47 0 -66 -2 -42 -4z"/>
<path d="M3383 533 c32 -2 81 -2 110 0 29 2 3 3 -58 3 -60 0 -84 -1 -52 -3z"/>
<path d="M3475 460 l-40 -7 53 -2 c29 0 52 3 52 9 0 11 -5 11 -65 0z"/>
<path d="M2728 133 c7 -3 16 -2 19 1 4 3 -2 6 -13 5 -11 0 -14 -3 -6 -6z"/>
<path d="M2340 111 c31 -5 28 -6 -25 -11 -45 -5 248 -5 378 -1 9 1 17 6 17 11
0 6 -73 9 -202 8 -112 0 -187 -4 -168 -7z"/>
<path d="M2933 113 c9 -2 23 -2 30 0 6 3 -1 5 -18 5 -16 0 -22 -2 -12 -5z"/>
<path d="M3345 100 c-50 -6 -42 -7 50 -7 61 0 119 3 130 8 24 9 -93 9 -180 -1z"/>
<path d="M2583 83 c15 -2 37 -2 50 0 12 2 0 4 -28 4 -27 0 -38 -2 -22 -4z"/>
<path d="M2172 75 c4 -4 40 -10 80 -15 l73 -7 -90 -2 c-61 -2 -83 -5 -70 -11
16 -7 14 -9 -14 -9 -28 -1 -33 -4 -23 -13 10 -10 81 -14 265 -16 139 -2 250
-2 247 1 -3 2 -57 7 -120 11 -172 8 -173 9 -67 16 53 3 103 12 109 18 7 7 39
12 72 12 32 0 57 2 55 4 -8 7 -524 18 -517 11z"/>
<path d="M2825 55 c-30 -14 -30 -14 -5 -16 36 -2 -42 -17 -105 -20 -111 -5
229 -17 518 -18 301 -1 307 -1 307 19 0 13 -7 20 -20 20 -11 0 -20 -4 -20 -10
0 -5 -5 -10 -11 -10 -5 0 -7 5 -4 10 4 7 -2 9 -19 4 -42 -10 -330 -11 -343 -1
-8 6 -13 6 -13 0 0 -5 -24 -8 -52 -7 -29 1 -68 3 -85 3 -26 1 -33 5 -33 21 0
17 -6 20 -42 19 -24 0 -56 -7 -73 -14z"/>
<path d="M3003 63 c20 -2 54 -2 75 0 20 2 3 4 -38 4 -41 0 -58 -2 -37 -4z"/>
<path d="M3168 63 c23 -2 59 -2 80 0 20 2 1 4 -43 4 -44 0 -61 -2 -37 -4z"/>
<path d="M3323 63 c15 -2 37 -2 50 0 12 2 0 4 -28 4 -27 0 -38 -2 -22 -4z"/>
<path d="M3428 63 c18 -2 45 -2 60 0 15 2 0 4 -33 4 -33 0 -45 -2 -27 -4z"/>
</g>
</svg>
